Patient4_TMGait_0pt2_01_left_23_GRF.mot
version=1
nRows=58
nColumns=19
inDegrees=no
endheader
time	F1x	F1y	F1z	M1x	M1y	M1z	F2x	F2y	F2z	M2x	M2y	M2z	EC1x	EC1y	EC1z	EC2x	EC2y	EC2z
52.67	3.9762	92.3097	11.6373	-30.0219	-11.0561	88.1279	-15.4235	689.7363	-27.5761	269.3978	38.076	737.9192	-0.0592	0.0182	-0.0073	-0.0462	0.0165	0.9585
52.6927	1.6963	79.8297	10.6245	-26.0129	-10.4604	76.5567	-15.0708	708.9796	-29.5608	276.7788	40.0739	758.04	-0.0592	0.0182	-0.0073	-0.0462	0.0165	0.9585
52.7154	-0.56421	65.7189	9.3425	-21.4564	-9.6559	63.3143	-15.0581	731.3941	-31.8236	285.3843	42.3967	781.2557	-0.0592	0.0182	-0.0073	-0.0462	0.0165	0.9585
52.7381	-2.4751	51.1027	7.8402	-16.7196	-8.6006	49.466	-15.3709	755.238	-34.1824	294.5441	44.8314	805.6949	-0.0592	0.0182	-0.0073	-0.0462	0.0165	0.9585
52.7609	-3.7066	37.1311	6.2002	-12.1802	-7.2642	36.1297	-15.9013	778.4601	-36.4185	303.4678	47.1041	829.1797	-0.0592	0.0182	-0.0073	-0.0462	0.0165	0.9585
52.7836	-4.0668	24.7868	4.5434	-8.1624	-5.6905	24.2806	-16.4775	799.1186	-38.3181	311.4042	48.928	849.6588	-0.0592	0.0182	-0.0073	-0.0462	0.0165	0.9585
52.8063	-3.6971	14.7809	3.0341	-4.9001	-4.0713	14.6286	-16.8983	815.6401	-39.7302	317.737	50.0729	865.4882	-0.0592	0.0182	-0.0073	-0.0462	0.0165	0.9585
52.829	-2.9658	7.3801	1.8092	-2.4798	-2.6427	7.4538	-16.9659	826.9594	-40.6062	322.0385	50.4193	875.5814	-0.0592	0.0182	-0.0073	-0.0462	0.0165	0.9585
52.8517	-2.1512	2.3493	0.90286	-0.82538	-1.5147	2.544	-16.51	832.6073	-41.0104	324.1066	49.9854	879.4983	-0.0592	0.0182	-0.0073	-0.0462	0.0165	0.9585
52.8744	-1.417	-0.81836	0.28583	0.22889	-0.70173	-0.59031	-15.4466	832.6918	-41.0762	323.966	48.9042	877.4194	-0.0592	0.0182	-0.0073	-0.0462	0.0165	0.9585
52.8971	-0.83955	-2.7123	-0.099559	0.87714	-0.16523	-2.5217	-13.7981	827.8278	-40.9404	321.8501	47.3607	870.0557	-0.0592	0.0182	-0.0073	-0.0462	0.0165	0.9585
52.9199	-0.43701	-3.8879	-0.31838	1.3023	0.15678	-3.795	-11.6431	819.0714	-40.7112	318.1777	45.5359	858.5554	-0.0592	0.0182	-0.0073	-0.0462	0.0165	0.9585
52.9426	-0.18789	-4.7947	-0.43222	1.6507	0.33399	-4.8519	-9.0788	807.7798	-40.4429	313.4988	43.5586	844.35	-0.0592	0.0182	-0.0073	-0.0462	0.0165	0.9585
52.9653	-0.044912	-5.7287	-0.49218	2.016	0.43374	-5.9738	-6.2154	795.3777	-40.1251	308.3964	41.4915	828.9146	-0.0592	0.0182	-0.0073	-0.0462	0.0165	0.9585
52.988	0.055638	-6.7926	-0.53635	2.4284	0.51526	-7.2472	-3.1845	783.1054	-39.722	303.3815	39.371	813.5218	-0.0592	0.0182	-0.0073	-0.0462	0.0165	0.9585
53.0107	0.18874	-7.8611	-0.58517	2.8397	0.62236	-8.5226	-0.13143	771.8421	-39.2089	298.8196	37.2401	799.0725	-0.0592	0.0182	-0.0073	-0.0462	0.0165	0.9585
53.0334	0.4337	-8.545	-0.63855	3.1068	0.78004	-9.3619	2.8081	762.052	-38.5759	294.9086	35.1459	786.0387	-0.0592	0.0182	-0.0073	-0.0462	0.0165	0.9585
53.0561	0.86822	-8.1545	-0.67342	2.9783	0.9903	-8.99	5.5286	753.7828	-37.835	291.6769	33.1411	774.4771	-0.0592	0.0182	-0.0073	-0.0462	0.0165	0.9585
53.0789	1.5621	-5.6768	-0.64499	2.0863	1.2301	-6.2732	7.9753	746.6867	-37.0216	288.9908	31.2766	764.0423	-0.0592	0.0182	-0.0073	-0.0462	0.0165	0.9585
53.1016	2.5596	0.20621	-0.48702	-0.046857	1.4449	0.259	10.1427	740.0364	-36.18	286.5606	29.5849	754.0108	-0.0592	0.0182	-0.0073	-0.0462	0.0165	0.9585
53.1243	3.85	11.0183	-0.11698	-3.9684	1.5393	12.3113	12.0451	732.727	-35.3492	283.9422	28.0826	743.2988	-0.0592	0.0182	-0.0073	-0.0462	0.0165	0.9585
53.147	5.3307	28.2565	0.55707	-10.2128	1.3704	31.5672	13.6879	723.3157	-34.5406	280.5558	26.764	730.5117	-0.0592	0.0182	-0.0073	-0.0462	0.0165	0.9585
53.1697	6.7425	52.9967	1.6293	-19.1621	0.7332	59.2449	15.055	710.147	-33.7147	275.7356	25.5849	714.0686	-0.0592	0.0182	-0.0073	-0.0462	0.0165	0.9585
53.1924	7.5463	85.3782	3.1909	-30.8603	-0.67348	95.5194	16.1029	691.5771	-32.7877	268.8183	24.4677	692.4262	-0.0592	0.0182	-0.0073	-0.0462	0.0165	0.9585
53.2151	7.1608	124.2268	5.356	-44.8725	-3.1889	139.1016	16.7535	666.3407	-31.6597	259.2904	23.3305	664.4399	-0.0592	0.0182	-0.0073	-0.0462	0.0165	0.9585
53.2379	5.5442	167.147	8.2303	-60.3197	-6.9499	187.2892	16.9273	634.0288	-30.2569	246.9754	22.1197	629.8091	-0.0592	0.0182	-0.0073	-0.0462	0.0165	0.9585
53.2606	3.0976	211.4518	11.6408	-76.2388	-11.616	236.9875	16.6162	595.4801	-28.5699	232.1848	20.8216	589.4299	-0.0592	0.0182	-0.0073	-0.0462	0.0165	0.9585
53.2833	0.288	255.3237	15.2103	-91.9906	-16.593	286.094	15.9086	552.7632	-26.6575	215.7139	19.4526	545.3617	-0.0592	0.0182	-0.0073	-0.0462	0.0165	0.9585
53.306	-2.5349	297.6415	18.6254	-107.1799	-21.4084	333.3417	14.9512	508.5869	-24.6155	198.6161	18.0433	500.2489	-0.0592	0.0182	-0.0073	-0.0462	0.0165	0.9585
53.3287	-5.1057	337.4425	21.6921	-121.4561	-25.7569	377.6712	13.8887	465.5698	-22.5537	181.9168	16.6387	456.6197	-0.0592	0.0182	-0.0073	-0.0462	0.0165	0.9585
53.3514	-7.2109	373.6828	24.3209	-134.4294	-29.4701	417.953	12.8293	425.7521	-20.593	166.4179	15.3054	416.4227	-0.0592	0.0182	-0.0073	-0.0462	0.0165	0.9585
53.3741	-8.7175	405.2615	26.4711	-145.6896	-32.4622	453.0181	11.8353	390.4442	-18.848	152.6361	14.1212	380.8847	-0.0592	0.0182	-0.0073	-0.0462	0.0165	0.9585
53.3969	-9.5911	431.3233	28.0969	-154.9214	-34.6743	481.9868	10.9404	360.2902	-17.3956	140.8268	13.1433	350.5777	-0.0592	0.0182	-0.0073	-0.0462	0.0165	0.9585
53.4196	-9.8806	451.6267	29.1341	-162.0383	-36.0516	504.6606	10.1794	335.3828	-16.2735	131.0296	12.3965	325.5318	-0.0592	0.0182	-0.0073	-0.0462	0.0165	0.9585
53.4423	-9.6845	466.5812	29.5627	-167.1876	-36.604	521.5428	9.6016	315.4088	-15.498	123.1258	11.8808	305.3812	-0.0592	0.0182	-0.0073	-0.0462	0.0165	0.9585
53.465	-9.1244	477.0209	29.4756	-170.6655	-36.4706	533.5792	9.2659	299.8235	-15.0714	116.9088	11.5789	289.5441	-0.0592	0.0182	-0.0073	-0.0462	0.0165	0.9585
53.4877	-8.3469	483.9738	29.0434	-172.8362	-35.8843	541.9173	9.2153	288.0412	-14.9797	112.1597	11.4663	277.4113	-0.0592	0.0182	-0.0073	-0.0462	0.0165	0.9585
53.5104	-7.5296	488.4366	28.4133	-174.0577	-35.0678	547.6777	9.4646	279.5201	-15.1849	108.6787	11.5075	268.4309	-0.0592	0.0182	-0.0073	-0.0462	0.0165	0.9585
53.5331	-6.8599	491.1785	27.6619	-174.6124	-34.1689	551.739	10.0069	273.7109	-15.6214	106.2636	11.6522	262.0592	-0.0592	0.0182	-0.0073	-0.0462	0.0165	0.9585
53.5559	-6.5134	492.713	26.811	-174.6928	-33.2667	554.7006	10.8136	269.977	-16.1963	104.6732	11.8334	257.6842	-0.0592	0.0182	-0.0073	-0.0462	0.0165	0.9585
53.5786	-6.6379	493.4468	25.865	-174.4501	-32.4066	557.023	11.8296	267.492	-16.8098	103.5849	11.9854	254.524	-0.0592	0.0182	-0.0073	-0.0462	0.0165	0.9585
53.6013	-7.3118	493.9143	24.8601	-174.0806	-31.6408	559.2536	12.9745	265.1411	-17.3678	102.5598	12.0516	251.5311	-0.0592	0.0182	-0.0073	-0.0462	0.0165	0.9585
53.624	-8.5188	494.9612	23.8965	-173.8942	-31.06	562.2187	14.1406	261.5808	-17.7752	101.0702	11.9775	247.4518	-0.0592	0.0182	-0.0073	-0.0462	0.0165	0.9585
53.6467	-10.1634	497.7803	23.1193	-174.3281	-30.7797	567.0744	15.1911	255.459	-17.9351	98.5869	11.7189	241.0403	-0.0592	0.0182	-0.0073	-0.0462	0.0165	0.9585
53.6694	-12.086	503.7623	22.685	-175.8904	-30.9078	575.1666	15.9684	245.6393	-17.7602	94.669	11.2478	231.2646	-0.0592	0.0182	-0.0073	-0.0462	0.0165	0.9585
53.6921	-14.0898	514.2626	22.7364	-179.0792	-31.5261	587.8058	16.3232	231.3933	-17.1846	89.0396	10.5562	217.47	-0.0592	0.0182	-0.0073	-0.0462	0.0165	0.9585
53.7149	-15.9853	530.4451	23.3719	-184.325	-32.6721	606.1157	16.1296	212.5633	-16.1829	81.6491	9.666	199.5273	-0.0592	0.0182	-0.0073	-0.0462	0.0165	0.9585
53.7376	-17.6079	553.1286	24.6213	-191.9309	-34.3195	630.8729	15.2986	189.6395	-14.7855	72.7023	8.6359	177.8969	-0.0592	0.0182	-0.0073	-0.0462	0.0165	0.9585
53.7603	-18.8283	582.6202	26.4434	-202.0124	-36.38	662.3256	13.8065	163.713	-13.0742	62.6335	7.5499	153.577	-0.0592	0.0182	-0.0073	-0.0462	0.0165	0.9585
53.783	-19.5502	618.5338	28.7328	-214.4332	-38.707	699.9839	11.728	136.2867	-11.1619	52.0291	6.4861	127.9313	-0.0592	0.0182	-0.0073	-0.0462	0.0165	0.9585
53.8057	-19.7052	659.6533	31.3383	-228.7555	-41.1156	742.4792	9.2361	108.9973	-9.1749	41.5195	5.497	102.4434	-0.0592	0.0182	-0.0073	-0.0462	0.0165	0.9585
53.8284	-19.2735	703.9186	34.0845	-244.2323	-43.4165	787.579	6.5652	83.3376	-7.2343	31.6737	4.6111	78.4739	-0.0592	0.0182	-0.0073	-0.0462	0.0165	0.9585
53.8511	-18.2947	748.5546	36.8082	-259.8505	-45.4593	832.3504	3.9789	60.4592	-5.4368	22.9241	3.8256	57.0831	-0.0592	0.0182	-0.0073	-0.0462	0.0165	0.9585
53.8739	-16.8447	790.3596	39.381	-274.4357	-47.1489	873.475	1.7385	41.0998	-3.849	15.5416	3.1111	38.9562	-0.0592	0.0182	-0.0073	-0.0462	0.0165	0.9585
53.8966	-15.0005	826.1388	41.7099	-286.814	-48.4312	907.6872	0.066096	25.6042	-2.5158	9.6475	2.4322	24.4191	-0.0592	0.0182	-0.0073	-0.0462	0.0165	0.9585
53.9193	-12.8275	853.2019	43.7233	-296.0049	-49.2695	932.2819	-0.92278	13.9831	-1.4655	5.2376	1.7757	13.4926	-0.0592	0.0182	-0.0073	-0.0462	0.0165	0.9585
53.942	-10.3711	869.8655	45.3553	-301.4087	-49.6234	945.6092	-1.3145	5.9646	-0.70508	2.2026	1.1814	5.9372	-0.0592	0.0182	-0.0073	-0.0462	0.0165	0.9585
53.9647	-7.6514	875.7665	46.54	-302.923	-49.437	947.3804	-1.3216	1.0009	-0.21052	0.33018	0.70359	1.2524	-0.0592	0.0182	-0.0073	-0.0462	0.0165	0.9585
